<svg width="232" height="232" viewBox="0 0 232 232" fill="none" xmlns="http://www.w3.org/2000/svg">
<rect width="232" height="232" rx="32" fill="black"/>
<path fill-rule="evenodd" clip-rule="evenodd" d="M215 19C215 17.8954 214.105 17 213 17H19C17.8954 17 17 17.8954 17 19V189.103C17 190.208 17.8954 191.103 19 191.103H38.8971C40.0016 191.103 40.8971 191.999 40.8971 193.103V213C40.8971 214.105 41.7925 215 42.8971 215H213C214.105 215 215 214.105 215 213V19Z" fill="black"/>
<path fill-rule="evenodd" clip-rule="evenodd" d="M129.467 43.0006C129.467 43.0005 129.467 43.0005 129.467 43.0005H166.903C166.903 43.0005 166.903 43.0005 166.903 43.0006V43.0006C166.903 43.0006 166.903 43.0006 166.903 43.0006H177.9C183.973 43.0006 188.897 47.9241 188.897 53.9974V115.879C188.897 122.506 183.524 127.879 176.897 127.879H164.865C158.237 127.879 152.865 122.506 152.865 115.879V91.9966C152.865 86.4401 148.36 81.9357 142.804 81.9357V81.9357C137.247 81.9357 132.743 86.4401 132.743 91.9966V176C132.743 182.628 127.37 188 120.743 188H113.089H104.666H64.9909C60.5419 188 56.9353 184.394 56.9353 179.945V178.908C56.9353 175.032 53.7927 171.889 49.9161 171.889V171.889C46.0395 171.889 42.8969 168.747 42.8969 164.87V145.037V55.0006C42.8969 48.3732 48.2695 43.0006 54.8969 43.0006H70.9738V43.0006C73.5582 43.0006 75.6532 45.0957 75.6532 47.6801V133.339C75.6532 139.8 80.8909 145.037 87.3519 145.037V145.037C93.8129 145.037 99.0506 139.8 99.0506 133.339V48.616C99.0506 45.5147 101.565 43.0006 104.666 43.0006V43.0006H127.127H129.467C129.467 43.0006 129.467 43.0006 129.467 43.0006V43.0006ZM164.865 145.562C158.237 145.562 152.865 150.935 152.865 157.562V184.021C152.865 186.218 154.645 187.998 156.842 187.998H160.819C160.819 187.998 160.82 187.999 160.82 187.999V187.999C160.82 188 160.82 188 160.821 188H176.897C183.524 188 188.897 182.628 188.897 176V157.562C188.897 150.935 183.524 145.562 176.897 145.562H164.865Z" fill="white"/>
</svg>
