<svg width="256" height="256" viewBox="0 0 256 256" fill="none" xmlns="http://www.w3.org/2000/svg">
<rect x="12" y="12" width="232" height="232" rx="32" fill="#1A1A1A"/>
<path d="M35.198 155.389H51.9324V172H35.198V155.389ZM118.292 152.866C116.323 159.429 112.611 164.597 107.156 168.37C101.701 172.144 95.0768 174.03 87.2838 174.03C77.44 174.03 69.401 170.831 63.1666 164.433C56.9732 157.993 53.8766 149.605 53.8766 139.27C53.8766 132.707 55.3121 126.821 58.1832 121.612C61.0543 116.362 65.0328 112.281 70.1187 109.369C75.2457 106.416 81.0084 104.939 87.4068 104.939C92.6978 104.939 97.3941 105.903 101.496 107.831C105.638 109.718 108.961 112.322 111.462 115.645C114.005 118.967 115.933 122.761 117.246 127.026C118.558 131.251 119.235 135.824 119.276 140.746V143.884H69.3805C69.9957 149.093 71.9234 153.235 75.1637 156.312C78.4039 159.388 82.4029 160.926 87.1607 160.926C94.8717 160.926 99.8756 158.239 102.172 152.866H118.292ZM69.5035 133.056H103.649C103.116 128.462 101.455 124.688 98.6656 121.735C95.9176 118.782 92.0826 117.306 87.1607 117.306C82.3619 117.306 78.4039 118.741 75.2867 121.612C72.2105 124.442 70.2828 128.257 69.5035 133.056ZM144.722 147.575C144.722 151.636 145.337 154.63 146.568 156.558C147.798 158.444 150.054 159.388 153.335 159.388H157.457V172.246H149.644C146.486 172.287 143.697 171.959 141.277 171.262C138.898 170.523 136.929 169.519 135.371 168.247C133.853 166.976 132.602 165.376 131.618 163.448C130.633 161.521 129.936 159.47 129.526 157.296C129.157 155.081 128.972 152.6 128.972 149.852V119.213H118.513V106.847H128.972V92.1426L144.722 85.1904V106.847H157.827V119.213H144.722V147.575ZM161.862 172V82.0527H177.736V117.921C181.878 109.39 188.379 105.124 197.238 105.124C205.319 105.124 211.245 107.523 215.019 112.322C218.792 117.121 220.679 123.745 220.679 132.194V172H204.56V136.07C204.56 130.779 203.678 126.657 201.914 123.704C200.151 120.71 197.095 119.213 192.747 119.213C188.277 119.213 184.708 121.223 182.042 125.242C179.417 129.221 178.105 135.065 178.105 142.776V172H161.862Z" fill="#F9F9F9"/>
</svg>
